<?xml version="1.0" encoding="UTF-8"?>
<svg id="Layer_1" data-name="Layer 1" xmlns="http://www.w3.org/2000/svg" version="1.1" viewBox="0 0 471.3 442.5">
  <defs>
    <style>
      .cls-1 {
        font-family: Times-Italic, Times;
        font-style: italic;
      }

      .cls-1, .cls-2 {
        fill: #000;
        font-size: 15px;
      }

      .cls-2 {
        font-family: MyriadPro-Regular, 'Myriad Pro';
      }
    </style>
  </defs>
  <text class="cls-1" transform="translate(0 10.2)"><tspan x="0" y="0">I L I A N E V R O V I L I A N E V R O V I L I </tspan><tspan x="292.2" y="0">A N E V R O V I L I A N E V </tspan><tspan x="0" y="18">R O V I L I A N E V R O V I L I A N E V R O </tspan><tspan x="291.6" y="18">V I L I A N E V R O V I L I A </tspan><tspan x="0" y="36">N E </tspan><tspan x="243" y="36">V R </tspan><tspan x="291.5" y="36">O V </tspan><tspan x="440" y="36">I L I </tspan><tspan x="0" y="54">A N </tspan><tspan x="50" y="54">E V R O V I L I A N E V R O </tspan><tspan x="243" y="54">V I L </tspan><tspan x="291.5" y="54">I A N E V R O V I L I </tspan><tspan x="440" y="54">A N </tspan><tspan x="0" y="72">E V </tspan><tspan x="50" y="72">R O </tspan><tspan x="196" y="72">V I L </tspan><tspan x="243" y="72">I A </tspan><tspan x="291.4" y="72">N E </tspan><tspan x="390" y="72">V R </tspan><tspan x="440" y="72">O V </tspan><tspan x="0" y="90">I L I </tspan><tspan x="50" y="90">A N </tspan><tspan x="196" y="90">E V </tspan><tspan x="243" y="90">R O </tspan><tspan x="291.4" y="90">V I L </tspan><tspan x="390" y="90">I A </tspan><tspan x="440" y="90">N E </tspan><tspan x="0" y="108">V R </tspan><tspan x="50" y="108">O V </tspan><tspan x="101.2" y="108">I L I A N E </tspan><tspan x="198.8" y="108">V R </tspan><tspan x="243" y="108">O V </tspan><tspan x="291.4" y="108">I L I </tspan><tspan x="390" y="108">A N </tspan><tspan x="440" y="108">E V </tspan><tspan x="0" y="126">R O </tspan><tspan x="50" y="126">V I L </tspan><tspan x="101" y="126">I A N E V R </tspan><tspan x="214.7" y="126">O </tspan><tspan x="243" y="126">V I L </tspan><tspan x="291.4" y="126">I A N </tspan><tspan x="390" y="126">E V </tspan><tspan x="440" y="126">R O </tspan><tspan x="0" y="144">V I L </tspan><tspan x="50" y="144">I A </tspan><tspan x="100.7" y="144">N E </tspan><tspan x="160.6" y="144">V R </tspan><tspan x="243" y="144">O V </tspan><tspan x="291.4" y="144">I L I </tspan><tspan x="390" y="144">A N </tspan><tspan x="440" y="144">E V </tspan><tspan x="0" y="162">R O </tspan><tspan x="50" y="162">V I L </tspan><tspan x="100.5" y="162">I A </tspan><tspan x="176.1" y="162">N E </tspan><tspan x="243" y="162">V R </tspan><tspan x="291.4" y="162">O V </tspan><tspan x="390" y="162">I L I </tspan><tspan x="440" y="162">A N </tspan><tspan x="0" y="180">E V </tspan><tspan x="50" y="180">R O </tspan><tspan x="100.4" y="180">V I L </tspan><tspan x="191.5" y="180">I A N </tspan><tspan x="243" y="180">E V </tspan><tspan x="291.4" y="180">R O </tspan><tspan x="390" y="180">V I L </tspan><tspan x="440" y="180">I A </tspan><tspan x="0" y="198">N E </tspan><tspan x="50" y="198">V R </tspan><tspan x="100.2" y="198">O V </tspan><tspan x="149.2" y="198">I L </tspan><tspan x="207.2" y="198">I A N </tspan><tspan x="243" y="198">E V </tspan><tspan x="291.4" y="198">R O </tspan><tspan x="390" y="198">V I L </tspan><tspan x="440" y="198">I A </tspan><tspan x="0" y="216">N E </tspan><tspan x="50" y="216">V R </tspan><tspan x="100.2" y="216">O V </tspan><tspan x="149.1" y="216">I L I </tspan><tspan x="222.9" y="216">A N E V </tspan><tspan x="291.4" y="216">R O </tspan><tspan x="390" y="216">V I L </tspan><tspan x="440" y="216">I A </tspan><tspan x="0" y="234">N E </tspan><tspan x="50" y="234">V R </tspan><tspan x="100.1" y="234">O V </tspan><tspan x="149" y="234">I L I </tspan><tspan x="238.5" y="234">A N </tspan><tspan x="291.3" y="234">E V </tspan><tspan x="390" y="234">R O </tspan><tspan x="440" y="234">V I L </tspan><tspan x="0" y="252">I A N </tspan><tspan x="50" y="252">E V </tspan><tspan x="100.1" y="252">R O </tspan><tspan x="149" y="252">V I </tspan><tspan x="196.4" y="252">L </tspan><tspan x="254" y="252">I A N </tspan><tspan x="291.1" y="252">E V </tspan><tspan x="390" y="252">R O </tspan><tspan x="440" y="252">V I L </tspan><tspan x="0" y="270">I A N </tspan><tspan x="50" y="270">E V </tspan><tspan x="100.2" y="270">R O </tspan><tspan x="149" y="270">V I L </tspan><tspan x="196.2" y="270">I A </tspan><tspan x="269.4" y="270">N E V R </tspan><tspan x="390" y="270">O V </tspan><tspan x="440" y="270">I L I </tspan><tspan x="0" y="288">A N </tspan><tspan x="50" y="288">E V </tspan><tspan x="100.3" y="288">R O </tspan><tspan x="149" y="288">V I L </tspan><tspan x="196.1" y="288">I A </tspan><tspan x="285" y="288">N E V </tspan><tspan x="390" y="288">R O </tspan><tspan x="440" y="288">V I L </tspan><tspan x="0" y="306">I A N </tspan><tspan x="50" y="306">E V </tspan><tspan x="100.3" y="306">R O </tspan><tspan x="149" y="306">V I L </tspan><tspan x="196.1" y="306">I A </tspan><tspan x="245.3" y="306">N </tspan><tspan x="295" y="306">E V </tspan><tspan x="390" y="306">R O </tspan><tspan x="440" y="306">V I L </tspan><tspan x="0" y="324">I A N </tspan><tspan x="50" y="324">E V </tspan><tspan x="100.4" y="324">R O </tspan><tspan x="148.9" y="324">V I L </tspan><tspan x="196" y="324">I A </tspan><tspan x="245" y="324">N E </tspan><tspan x="295.7" y="324">V R </tspan><tspan x="390" y="324">O V </tspan><tspan x="440" y="324">I L I </tspan><tspan x="0" y="342">A N </tspan><tspan x="50" y="342">E V </tspan><tspan x="100.5" y="342">R O </tspan><tspan x="148.8" y="342">V I L </tspan><tspan x="196" y="342">I A </tspan><tspan x="244.8" y="342">N E </tspan><tspan x="296" y="342">V R </tspan><tspan x="390" y="342">O V </tspan><tspan x="440" y="342">I L I </tspan><tspan x="0" y="360">A N </tspan><tspan x="50" y="360">E V </tspan><tspan x="148.7" y="360">R O </tspan><tspan x="196" y="360">V I L </tspan><tspan x="244.7" y="360">I A </tspan><tspan x="390" y="360">N E </tspan><tspan x="440" y="360">V R </tspan><tspan x="0" y="378">O V </tspan><tspan x="50" y="378">I L I </tspan><tspan x="147.8" y="378">A N </tspan><tspan x="196" y="378">E V </tspan><tspan x="244.6" y="378">R O </tspan><tspan x="390" y="378">V I L </tspan><tspan x="440" y="378">I A </tspan><tspan x="0" y="396">N E </tspan><tspan x="50" y="396">V R O V I L I A N E </tspan><tspan x="196" y="396">V R </tspan><tspan x="244.9" y="396">O V I L I A N E V R O V I L I </tspan><tspan x="440" y="396">A N </tspan><tspan x="0" y="414">E V </tspan><tspan x="148" y="414">R O </tspan><tspan x="196" y="414">V I L </tspan><tspan x="440" y="414">I A </tspan><tspan x="0" y="432">N E V R O V I L I A N E V R </tspan><tspan x="196" y="432">O V I L I A N E V R O V I L I A N E V R O V </tspan></text>
  <text class="cls-2" transform="translate(340 117.6)"><tspan x="0" y="0">I L I </tspan><tspan x="0" y="18">A N </tspan><tspan x="0" y="36">E V R </tspan><tspan x="0" y="54">O V I </tspan><tspan x=".1" y="72">L I A </tspan><tspan x=".1" y="90">N E </tspan><tspan x=".2" y="108">V R </tspan><tspan x=".2" y="126">O V I </tspan><tspan x=".3" y="144">L I A </tspan><tspan x=".3" y="162">N E </tspan><tspan x=".3" y="180">V R </tspan><tspan x=".4" y="198">O V I </tspan><tspan x=".4" y="216">L I A </tspan><tspan x=".5" y="234">N E </tspan></text>
</svg>