<svg width="255" height="56" viewBox="0 0 255 56" fill="none" xmlns="http://www.w3.org/2000/svg">
<path fill-rule="evenodd" clip-rule="evenodd" d="M103.007 22C103.007 27.5228 98.5301 32 93.0073 32C87.4844 32 83.0073 27.5228 83.0073 22C83.0073 16.4772 87.4844 12 93.0073 12C98.5301 12 103.007 16.4772 103.007 22ZM107.007 22C107.007 27.1348 104.243 31.6239 100.121 34.0604L103.517 41.2896L100.081 42.9032L96.6182 35.5299C95.4662 35.8366 94.2558 36 93.0073 36C85.2753 36 79.0073 29.732 79.0073 22C79.0073 20.2652 79.3228 18.604 79.8997 17.0708L65.5994 23.7392C64.5983 24.206 63.4083 23.7729 62.9415 22.7718C62.4747 21.7707 62.9078 20.5808 63.9089 20.114L86.9433 9.37283C86.9801 9.35567 87.0172 9.33973 87.0544 9.32498C88.8609 8.47507 90.8786 8 93.0073 8C100.739 8 107.007 14.268 107.007 22ZM87.5073 56C93.3063 56 98.0073 55.1046 98.0073 54C98.0073 52.8954 93.3063 52 87.5073 52C81.7083 52 77.0073 52.8954 77.0073 54C77.0073 55.1046 81.7083 56 87.5073 56ZM67.7519 26.733C67.2851 25.7319 67.7182 24.5419 68.7193 24.0751L75.4139 20.9534C76.415 20.4866 77.605 20.9197 78.0718 21.9208C78.5386 22.9218 78.1055 24.1118 77.1044 24.5786L70.4098 27.7004C69.4087 28.1672 68.2187 27.7341 67.7519 26.733ZM60.8164 34.0522C59.8153 34.519 59.3822 35.709 59.849 36.71C60.3158 37.7111 61.5058 38.1442 62.5068 37.6774L77.8014 30.5455C78.8024 30.0787 79.2356 28.8887 78.7687 27.8876C78.3019 26.8865 77.112 26.4534 76.1109 26.9202L60.8164 34.0522ZM69.9993 38.2517C69.5324 37.2506 69.9656 36.0607 70.9666 35.5939L79.3812 31.6701C80.3823 31.2032 81.5723 31.6364 82.0391 32.6374C82.5059 33.6385 82.0728 34.8285 81.0717 35.2953L72.6571 39.2191C71.656 39.6859 70.4661 39.2528 69.9993 38.2517ZM79.3969 37.9376C78.3959 38.4044 77.9628 39.5943 78.4296 40.5954C78.8964 41.5965 80.0863 42.0296 81.0874 41.5628L86.0621 39.2431C87.0632 38.7763 87.4963 37.5863 87.0294 36.5852C86.5626 35.5841 85.3727 35.151 84.3716 35.6178L79.3969 37.9376ZM91.5673 22.4146C91.9405 23.2121 91.5965 24.1611 90.799 24.5343C90.0016 24.9075 89.0526 24.5635 88.6794 23.7661C88.3062 22.9686 88.6501 22.0196 89.4476 21.6464C90.2451 21.2732 91.1941 21.6172 91.5673 22.4146ZM101.194 17.9099C101.567 18.7074 101.223 19.6564 100.425 20.0296C99.6279 20.4028 98.6789 20.0588 98.3058 19.2613C97.9326 18.4639 98.2765 17.5149 99.074 17.1417C99.8715 16.7685 100.82 17.1124 101.194 17.9099ZM98.9549 22.4271C98.9513 22.0729 98.8734 21.7279 98.7255 21.4119L96.0782 22.6507L93.431 23.8895C93.5789 24.2055 93.7938 24.4864 94.0635 24.7161C94.3331 24.9459 94.6523 25.1199 95.0027 25.2283C95.3531 25.3368 95.7279 25.3775 96.1056 25.3481C96.4834 25.3188 96.8568 25.2199 97.2044 25.0572C97.5521 24.8946 97.8672 24.6712 98.1317 24.4C98.3963 24.1287 98.6052 23.8149 98.7464 23.4764C98.8877 23.1379 98.9585 22.7814 98.9549 22.4271ZM254.67 26.8352V23.4545H251.012V19.0114H246.641V23.4545H244.009V26.8352H246.641V37.1463C246.633 38.3054 246.883 39.2713 247.39 40.044C247.905 40.8168 248.601 41.3882 249.479 41.7585C250.356 42.1207 251.342 42.2857 252.437 42.2535C253.057 42.2374 253.58 42.1811 254.006 42.0845C254.441 41.9879 254.775 41.8994 255.009 41.8189L254.272 38.402C254.151 38.4342 253.974 38.4704 253.741 38.5106C253.515 38.5509 253.266 38.571 252.992 38.571C252.63 38.571 252.3 38.5147 252.002 38.402C251.704 38.2893 251.463 38.08 251.278 37.7741C251.101 37.4602 251.012 37.0095 251.012 36.4219V26.8352H254.67ZM232.633 42V23.4545H236.871V26.5454H237.064C237.402 25.4749 237.982 24.6498 238.803 24.0703C239.632 23.4827 240.578 23.1889 241.64 23.1889C241.882 23.1889 242.152 23.201 242.449 23.2251C242.755 23.2412 243.009 23.2694 243.21 23.3096V27.3302C243.025 27.2658 242.731 27.2095 242.329 27.1612C241.934 27.1049 241.552 27.0767 241.182 27.0767C240.385 27.0767 239.668 27.2497 239.032 27.5959C238.405 27.9339 237.91 28.4048 237.547 29.0085C237.185 29.6122 237.004 30.3085 237.004 31.0973V42H232.633ZM217.029 41.1669C218.357 41.9638 219.926 42.3622 221.737 42.3622C223.548 42.3622 225.118 41.9638 226.446 41.1669C227.774 40.37 228.801 39.2552 229.525 37.8224C230.258 36.3897 230.624 34.7154 230.624 32.7997C230.624 30.884 230.258 29.2057 229.525 27.7649C228.801 26.3241 227.774 25.2052 226.446 24.4084C225.118 23.6115 223.548 23.213 221.737 23.213C219.926 23.213 218.357 23.6115 217.029 24.4084C215.7 25.2052 214.67 26.3241 213.938 27.7649C213.213 29.2057 212.851 30.884 212.851 32.7997C212.851 34.7154 213.213 36.3897 213.938 37.8224C214.67 39.2552 215.7 40.37 217.029 41.1669ZM224.225 38.0518C223.565 38.5911 222.744 38.8608 221.762 38.8608C220.755 38.8608 219.918 38.5911 219.25 38.0518C218.59 37.5045 218.095 36.772 217.765 35.8544C217.443 34.9368 217.282 33.9145 217.282 32.7876C217.282 31.6527 217.443 30.6264 217.765 29.7088C218.095 28.7831 218.59 28.0466 219.25 27.4993C219.918 26.9519 220.755 26.6782 221.762 26.6782C222.744 26.6782 223.565 26.9519 224.225 27.4993C224.885 28.0466 225.376 28.7831 225.698 29.7088C226.028 30.6264 226.193 31.6527 226.193 32.7876C226.193 33.9145 226.028 34.9368 225.698 35.8544C225.376 36.772 224.885 37.5045 224.225 38.0518ZM194.098 48.9545V23.4545H198.396V26.5213H198.649C198.875 26.0705 199.193 25.5916 199.603 25.0845C200.014 24.5693 200.569 24.1307 201.27 23.7684C201.97 23.3982 202.863 23.213 203.95 23.213C205.383 23.213 206.675 23.5793 207.826 24.3118C208.985 25.0362 209.902 26.1108 210.578 27.5355C211.263 28.9522 211.605 30.6908 211.605 32.7514C211.605 34.7879 211.271 36.5184 210.603 37.9432C209.935 39.3679 209.025 40.4545 207.874 41.2031C206.723 41.9517 205.419 42.326 203.962 42.326C202.899 42.326 202.018 42.1489 201.318 41.7947C200.618 41.4406 200.054 41.0139 199.627 40.5149C199.209 40.0078 198.883 39.5289 198.649 39.0781H198.468V48.9545H194.098ZM198.384 32.7272C198.384 33.9266 198.553 34.977 198.891 35.8785C199.237 36.78 199.732 37.4844 200.376 37.9915C201.028 38.4905 201.817 38.74 202.743 38.74C203.708 38.74 204.517 38.4825 205.169 37.9673C205.821 37.4441 206.312 36.7317 206.642 35.8302C206.98 34.9207 207.149 33.8863 207.149 32.7272C207.149 31.5762 206.984 30.554 206.654 29.6605C206.324 28.767 205.833 28.0667 205.181 27.5596C204.529 27.0525 203.716 26.799 202.743 26.799C201.809 26.799 201.016 27.0445 200.364 27.5355C199.712 28.0265 199.217 28.7147 198.879 29.6001C198.549 30.4855 198.384 31.5279 198.384 32.7272ZM185.925 21.6072C186.762 22.1948 187.237 23.0158 187.349 24.0703H191.66C191.635 22.6778 191.245 21.4462 190.488 20.3757C189.732 19.2971 188.689 18.4559 187.361 17.8522C186.041 17.2405 184.504 16.9346 182.749 16.9346C181.019 16.9346 179.469 17.2405 178.101 17.8522C176.732 18.4559 175.65 19.3051 174.853 20.3998C174.064 21.4945 173.67 22.7703 173.67 24.2272C173.67 25.9981 174.257 27.4188 175.432 28.4893C176.616 29.5518 178.225 30.3447 180.262 30.8679L183.075 31.5923C183.96 31.8177 184.733 32.0753 185.393 32.365C186.061 32.6468 186.581 33.0009 186.951 33.4275C187.321 33.8461 187.51 34.3773 187.518 35.0213C187.51 35.7296 187.297 36.3494 186.878 36.8807C186.46 37.4039 185.88 37.8144 185.14 38.1122C184.407 38.402 183.554 38.5468 182.58 38.5468C181.646 38.5468 180.801 38.406 180.045 38.1243C179.296 37.8425 178.688 37.4159 178.221 36.8444C177.755 36.2729 177.489 35.5566 177.425 34.6953H173.018C173.082 36.3373 173.509 37.7299 174.297 38.8728C175.094 40.0158 176.197 40.8852 177.606 41.4808C179.022 42.0764 180.693 42.3743 182.616 42.3743C184.596 42.3743 186.283 42.0684 187.675 41.4566C189.076 40.8369 190.146 39.9796 190.887 38.8849C191.627 37.7822 191.998 36.5064 191.998 35.0575C191.998 33.987 191.796 33.0532 191.394 32.2564C190.992 31.4595 190.444 30.7793 189.752 30.2159C189.068 29.6524 188.291 29.1856 187.422 28.8153C186.56 28.445 185.663 28.1513 184.729 27.9339L182.411 27.3544C181.904 27.2336 181.401 27.0847 180.902 26.9076C180.403 26.7306 179.948 26.5132 179.537 26.2557C179.127 25.99 178.801 25.6681 178.559 25.2897C178.326 24.9114 178.209 24.4647 178.209 23.9495C178.217 23.3298 178.398 22.7784 178.753 22.2954C179.107 21.8125 179.618 21.4301 180.286 21.1484C180.954 20.8667 181.755 20.7258 182.689 20.7258C184.017 20.7258 185.095 21.0196 185.925 21.6072ZM157.697 42V35.7662L159.288 34.0617L164.966 42H170.194L162.581 31.4597L169.771 23.4545H164.664L157.999 30.9041H157.697V17.2727H153.327V42H157.697ZM138.724 41.1427C140.052 41.9557 141.642 42.3622 143.493 42.3622C145.047 42.3622 146.399 42.0805 147.55 41.517C148.701 40.9455 149.611 40.1567 150.279 39.1505C150.947 38.1363 151.333 36.9732 151.438 35.6612H147.26C147.131 36.3293 146.894 36.8968 146.548 37.3636C146.202 37.8305 145.771 38.1887 145.256 38.4382C144.749 38.6797 144.173 38.8004 143.529 38.8004C142.62 38.8004 141.827 38.5589 141.151 38.076C140.483 37.585 139.964 36.8887 139.593 35.9872C139.223 35.0776 139.038 33.991 139.038 32.7273C139.038 31.4796 139.223 30.4091 139.593 29.5156C139.972 28.6221 140.499 27.938 141.175 27.463C141.851 26.9801 142.636 26.7386 143.529 26.7386C144.584 26.7386 145.425 27.0405 146.053 27.6442C146.689 28.2398 147.091 28.9844 147.26 29.8778H151.438C151.341 28.5416 150.947 27.3745 150.255 26.3764C149.562 25.3702 148.633 24.5935 147.465 24.0461C146.306 23.4907 144.974 23.213 143.469 23.213C141.658 23.213 140.088 23.6195 138.76 24.4325C137.44 25.2374 136.418 26.3643 135.693 27.8132C134.969 29.254 134.607 30.9162 134.607 32.7997C134.607 34.6752 134.961 36.3333 135.669 37.7741C136.386 39.2069 137.404 40.3298 138.724 41.1427ZM128.238 42V23.4545H132.609V42H128.238ZM130.436 20.8224C129.744 20.8224 129.148 20.593 128.649 20.1342C128.15 19.6674 127.9 19.1079 127.9 18.4559C127.9 17.7959 128.15 17.2365 128.649 16.7777C129.148 16.3108 129.744 16.0774 130.436 16.0774C131.136 16.0774 131.732 16.3108 132.223 16.7777C132.722 17.2365 132.971 17.7959 132.971 18.4559C132.971 19.1079 132.722 19.6674 132.223 20.1342C131.732 20.593 131.136 20.8224 130.436 20.8224ZM121.073 23.4545V34.2003C121.073 35.142 120.876 35.9268 120.482 36.5547C120.095 37.1745 119.6 37.6413 118.997 37.9552C118.393 38.2692 117.769 38.4261 117.125 38.4261C116.079 38.4261 115.233 38.08 114.59 37.3878C113.946 36.6955 113.624 35.7618 113.624 34.5866V23.4545H109.253V35.2628C109.253 36.7438 109.515 38.0076 110.038 39.054C110.561 40.0923 111.285 40.8852 112.211 41.4325C113.145 41.9718 114.219 42.2415 115.435 42.2415C116.827 42.2415 117.998 41.9114 118.948 41.2514C119.906 40.5914 120.594 39.7422 121.013 38.7038H121.206V42H125.444V23.4545H121.073Z" fill="#323232"/>
<path d="M48.7532 42.3622C46.8938 42.3622 45.288 41.9759 43.9357 41.2031C42.5915 40.4224 41.5572 39.3196 40.8327 37.8949C40.1083 36.4621 39.7461 34.7758 39.7461 32.8359C39.7461 30.9283 40.1083 29.254 40.8327 27.8132C41.5652 26.3644 42.5875 25.2375 43.8995 24.4325C45.2115 23.6196 46.753 23.2131 48.5238 23.2131C49.6668 23.2131 50.7454 23.3982 51.7596 23.7685C52.7818 24.1307 53.6834 24.6941 54.4641 25.4588C55.253 26.2235 55.8728 27.1974 56.3235 28.3807C56.7743 29.5559 56.9996 30.9564 56.9996 32.5824V33.9226H41.7986V30.9766H52.81C52.802 30.1394 52.6209 29.3949 52.2667 28.7429C51.9125 28.0829 51.4175 27.5637 50.7816 27.1854C50.1538 26.8071 49.4213 26.6179 48.5842 26.6179C47.6907 26.6179 46.9059 26.8352 46.2298 27.2699C45.5536 27.6965 45.0264 28.2599 44.6481 28.9602C44.2778 29.6525 44.0887 30.4131 44.0806 31.2422V33.8139C44.0806 34.8925 44.2778 35.8182 44.6722 36.5909C45.0666 37.3556 45.618 37.9432 46.3264 38.3537C47.0347 38.7562 47.8638 38.9574 48.8136 38.9574C49.4495 38.9574 50.025 38.8688 50.5401 38.6918C51.0553 38.5066 51.502 38.237 51.8803 37.8828C52.2586 37.5287 52.5444 37.09 52.7376 36.5668L56.8185 37.0256C56.561 38.1042 56.07 39.0459 55.3455 39.8509C54.6291 40.6477 53.7115 41.2675 52.5927 41.7102C51.4738 42.1449 50.194 42.3622 48.7532 42.3622Z" fill="#323232"/>
<path d="M26.0621 31.1335V42H21.6914V17.2727H25.9656V26.6058H26.1829C26.6175 25.5594 27.2897 24.7344 28.1992 24.1307C29.1168 23.5189 30.284 23.2131 31.7006 23.2131C32.9885 23.2131 34.1114 23.4827 35.0692 24.022C36.0271 24.5613 36.7676 25.3502 37.2908 26.3885C37.8221 27.4269 38.0877 28.6946 38.0877 30.1918V42H33.717V30.8679C33.717 29.6203 33.395 28.6503 32.7511 27.9581C32.1152 27.2578 31.2217 26.9077 30.0707 26.9077C29.2979 26.9077 28.6057 27.0767 27.994 27.4148C27.3903 27.7448 26.9154 28.2237 26.5692 28.8516C26.2312 29.4794 26.0621 30.2401 26.0621 31.1335Z" fill="#323232"/>
<path d="M0.352539 21.0277V17.2727H20.0812V21.0277H12.4385V42H7.99529V21.0277H0.352539Z" fill="#323232"/>
</svg>
